<?xml version="1.0" standalone="no"?>
<!DOCTYPE svg PUBLIC "-//W3C//DTD SVG 20010904//EN"
 "http://www.w3.org/TR/2001/REC-SVG-20010904/DTD/svg10.dtd">
<svg version="1.0" xmlns="http://www.w3.org/2000/svg"
 width="3840.000000pt" height="2160.000000pt" viewBox="0 0 3840.000000 2160.000000"
 preserveAspectRatio="xMidYMid meet">
<metadata>
Created by potrace 1.16, written by Peter Selinger 2001-2019
</metadata>
<g transform="translate(0.000000,2160.000000) scale(0.100000,-0.100000)"
fill="#000000" stroke="none">
<path d="M0 10815 l0 -10785 12810 0 12810 0 0 10785 0 10785 -12810 0 -12810
0 0 -10785z m7490 1218 c0 -30 -31 -377 -36 -400 l-4 -23 -830 0 c-657 0 -830
-3 -830 -12 0 -7 7 -106 17 -220 l17 -208 793 0 793 0 0 -27 c1 -56 -113
-1308 -119 -1314 -3 -3 -205 -61 -448 -128 l-441 -121 -444 121 c-243 67 -446
124 -451 128 -6 6 -66 619 -67 679 0 10 48 12 223 10 l222 -3 14 -170 c7 -93
15 -171 16 -173 1 -1 111 -32 245 -67 l242 -65 235 64 c129 36 237 66 239 69
3 2 13 105 24 228 11 123 22 248 25 277 l6 52 -754 0 -755 0 -6 48 c-3 26 -28
304 -56 617 -27 314 -52 589 -55 613 l-6 42 1095 0 c1037 0 1096 -1 1096 -17z
m12657 -160 c-3 -49 -32 -504 -63 -1013 -31 -509 -57 -926 -58 -927 0 0 -185
-62 -411 -137 l-410 -136 -410 137 c-225 74 -411 136 -412 137 -3 2 -33 514
-33 554 l0 22 209 0 208 0 7 -132 c4 -73 8 -133 9 -134 1 -1 97 -32 212 -71
l210 -69 210 72 210 72 12 173 c6 96 13 200 15 232 l4 57 -457 0 -456 0 -7
163 c-4 89 -9 183 -12 210 l-6 47 480 0 479 0 12 168 c6 92 14 184 17 205 l6
37 -716 0 -716 0 -4 23 c-6 29 -26 303 -26 356 l0 41 951 0 952 0 -6 -87z"/>
<path d="M32895 12413 c-124 -15 -275 -64 -377 -123 -181 -102 -322 -285 -374
-485 -15 -56 -19 -104 -18 -240 1 -154 3 -178 28 -258 47 -156 119 -272 237
-381 119 -110 249 -186 544 -316 383 -168 479 -229 526 -335 32 -70 32 -172 0
-237 -65 -135 -241 -210 -453 -194 -219 17 -397 123 -528 315 l-41 62 -67 -37
c-112 -63 -398 -228 -423 -245 l-23 -16 54 -87 c168 -268 426 -442 775 -522
92 -21 436 -31 545 -15 166 25 362 98 473 177 254 181 369 455 337 798 -28
288 -163 496 -440 676 -77 50 -314 167 -492 244 -248 106 -366 184 -410 271
-29 56 -36 171 -14 229 26 67 90 129 161 156 51 19 73 21 152 17 145 -8 225
-54 324 -188 30 -39 58 -68 65 -65 21 8 438 277 456 295 17 16 15 20 -28 86
-26 39 -90 113 -143 166 -85 84 -110 102 -201 148 -115 56 -207 83 -345 100
-85 10 -234 12 -300 4z"/>
<path d="M30958 12168 c-2 -117 -4 -629 -6 -1137 -3 -908 -3 -924 -24 -987
-28 -87 -81 -146 -156 -174 -48 -19 -73 -21 -162 -18 -89 3 -113 8 -155 30
-63 33 -137 111 -199 210 l-47 77 -137 -83 c-240 -145 -372 -228 -372 -233 0
-14 100 -170 143 -224 64 -79 190 -178 298 -234 281 -145 700 -147 994 -5 212
102 346 277 418 545 21 79 21 93 24 1263 l4 1182 -310 0 -310 0 -3 -212z"/>
</g>
</svg>
